<svg version="1.1" xmlns="http://www.w3.org/2000/svg" xmlns:xlink="http://www.w3.org/1999/xlink" width="36.12568" height="29.68143" viewBox="0,0,36.12568,29.68143">
    <g transform="translate(-237.15834,-153.94855)">
        <g data-paper-data="{&quot;isPaintingLayer&quot;:true}" fill="none" fill-rule="nonzero" stroke="none" stroke-width="0.5" stroke-linecap="butt" stroke-linejoin="miter" stroke-miterlimit="10" stroke-dasharray="" stroke-dashoffset="0" font-family="none" font-weight="none" font-size="none" text-anchor="none" style="mix-blend-mode: normal">
            <path d="M268.59181,155.73277c0.6073,-0.49631 1.22342,-0.92943 1.83268,-1.2444l-0.02128,-0.06384l1.20784,-0.40261c0.1321,-0.04749 0.27451,-0.07337 0.42297,-0.07337c0.69036,0 1.25,0.55964 1.25,1.25c0,0.14845 -0.02588,0.29086 -0.07337,0.42297l-0.19669,0.59008c0.59929,1.44359 -2.68036,2.92474 -3.3038,3.39971c-0.14743,0.11232 0.31632,0.35758 0.215,0.51277c-1.05934,1.62255 -2.77769,2.7225 -4.00853,4.19516c-1.20025,1.43605 -1.77157,3.08876 -3.27931,4.27458c-2.91965,1.94643 -6.0273,3.74 -9.35857,4.88195c-1.65669,0.56791 -3.58484,0.0714 -5.05583,1.29565c-1.11716,0.74478 -2.19559,1.57746 -3.40439,2.1525l0.0175,0.05249l-1.20784,0.40261c-0.1321,0.04749 -0.27451,0.07337 -0.42297,0.07337c-0.01998,0 -0.03985,-0.00047 -0.0596,-0.0014c-0.04809,0.13306 -0.11813,0.25563 -0.20573,0.36332c-0.22269,0.29649 -0.6354,0.61958 -1.31765,0.41283c-0.03266,-0.00943 -0.06477,-0.02016 -0.09627,-0.03212c-0.48624,-0.17742 -0.69099,-0.49311 -0.76666,-0.79464l-1.14317,-2.28633l2.23607,-1.11803l0.05576,0.11152c1.89796,-3.36082 5.01069,-5.86421 8.22291,-8.00569c2.07727,-1.38485 4.71698,-1.12564 7.07689,-1.44546c1.99378,-0.2702 3.72458,-2.72782 5.29371,-3.75228c0.53088,-0.3466 1.5994,-0.40888 1.85328,-1.0296c1.09832,-1.09832 2.47794,-2.6429 3.92363,-3.87953l0.12761,-0.1527c0,0 0.06962,-0.05169 0.1858,-0.1095z" fill="#9966ff"/><path d="M241.38117,176.33595l0.36607,0.12202c0.20535,-0.19864 0.36926,-0.11609 0.49651,0.12181c0.66475,0.15312 1.74282,0.39038 1.78516,0.4318h0.82368c0.69036,0 1.25,0.55964 1.25,1.25c0,0.44077 -0.22813,0.82825 -0.57276,1.05082c-0.36413,0.24276 -0.781,0.52067 -1.21939,0.81293c-1.04901,0.69934 -2.22121,1.48081 -3.0888,2.0592c-0.41184,0.27456 -0.74983,0.91906 -1.23552,0.82368l-0.60354,0.40236c-0.20119,0.1384 -0.44493,0.21942 -0.7076,0.21942c-0.69036,0 -1.25,-0.55964 -1.25,-1.25c0,-0.14845 0.02588,-0.29086 0.07337,-0.42297l0.31333,-0.93998c-1.18811,-0.96726 -0.45943,-2.24612 -0.1152,-3.7544c-0.09908,-0.70489 -0.10053,-1.31337 0.14034,-1.47209c0,-0.41184 0,-0.82368 0,-0.82368c0,-0.69036 0.55964,-1.25 1.25,-1.25c0.69036,0 1.25,0.55964 1.25,1.25l0,0.80926c0.57221,0.00445 0.87941,0.27289 1.04434,0.55983z" fill="#0a0711"/>
        </g>
    </g>
</svg>
