<svg version="1.1" xmlns="http://www.w3.org/2000/svg" xmlns:xlink="http://www.w3.org/1999/xlink" width="117" height="129">
    <g transform="translate(-181,-115)">
        <g data-paper-data="{&quot;isPaintingLayer&quot;:true}" fill="none" fill-rule="nonzero" stroke="none" stroke-width="none" stroke-linecap="butt" stroke-linejoin="miter" stroke-miterlimit="10" stroke-dasharray="" stroke-dashoffset="0" font-family="none" font-weight="none" font-size="none" text-anchor="none" style="mix-blend-mode: normal">
            <path d="M298,187.5c0,31.20409 -26.19134,56.5 -58.5,56.5c-32.30866,0 -58.5,-25.29591 -58.5,-56.5c0,-31.20409 26.19134,-56.5 58.5,-56.5c32.30866,0 58.5,25.29591 58.5,56.5z" fill="#ffe7b6" stroke-width="0"/><path d="M275,128c0,7.1797 -15.44617,13 -34.5,13c-19.05382,0 -34.5,-5.8203 -34.5,-13c0,-7.1797 15.44618,-13 34.5,-13c19.05383,0 34.5,5.8203 34.5,13z" data-paper-data="{&quot;origPos&quot;:null}" fill="#ffe7b6" stroke-width="0"/>
            <path d="M227,160.5c-1.5,-2 -0.5,-1.5 -0.5,-1.5v-1.5c0.24408,-1.08926 0.31242,-2.23345 0.73224,-3.26776c1.39269,-3.43121 6.77849,-3.73224 9.76776,-3.73224c0,0 2.5,0 2.5,2.5c0,2.5 -2.5,2.5 -2.5,2.5c-2.08994,0 -5.36118,-0.11422 -6.23224,2.26776c-0.08926,0.24408 0.48816,-0.17851 0.73224,-0.26776v1.5c0,0 -3,3.5 -4.5,1.5z" fill="#68ff66" stroke-width="0.5"/>
            <path d="M239.03246,219.49979c-2.49979,0.03246 -2.53225,-2.46732 -2.53225,-2.46732l-0.00021,-2.03246c0,-2.11155 -0.35182,-4.12384 -0.6381,-6.17599c-1.01697,-0.07148 -1.98416,-0.17852 -2.8619,-0.32401c-4.05399,-0.67195 -7.86599,-2 -12,-2l0.42653,-0.4432c-0.59847,0.45435 -1.56688,0.8301 -2.78466,0.04212c-2.09893,-1.35813 -0.7408,-3.45705 -0.7408,-3.45705l3.09893,-1.14187c4.15612,0 8.00804,1.3284 12,2c0.79343,0.13348 1.63671,0.18194 2.49922,0.18598c-0.01704,-9.04679 -0.30508,-18.14881 0.00078,-27.18598c0.05652,-1.66983 0.60291,-3.04529 0.8633,-4.53319c-1.03907,-0.40991 -2.17623,-0.6213 -3.13107,-1.19904c-1.43613,-0.86896 -3.27488,-3.0884 -4.31236,-4.38102c-1.89295,-2.35846 -4.79433,-5.66908 -3.79158,-8.67732c0.89634,-2.68902 1.17658,-4.23084 3.87171,-6.20943c1.00886,-0.74064 4.01449,0.32933 5.20943,0.12829c0.87082,-0.1465 1.69224,-0.50626 2.53061,-0.79264c-0.02012,-0.36195 -0.05571,-0.712 -0.11175,-1.04508c-0.58147,-3.45628 -1.12829,-6.22504 -1.12829,-9.79057c0,0 0,-2.5 2.5,-2.5c2.5,0 2.5,2.5 2.5,2.5c0,1.90169 -0.31489,4.12831 0,6c0.26266,1.56126 0.86018,2.4989 0.98278,4.17652c0.00574,-0.00019 0.01148,-0.00039 0.01722,-0.00058c3.80575,-0.12679 7.86678,0.32406 11.5,0.32406c0,0 2.5,0 2.5,2.5c0,2.5 -2.5,2.5 -2.5,2.5c-3.5,0 -7,0 -10.5,0c-0.29904,0 -0.60137,-0.00769 -0.90515,-0.01724c0.03085,4.84042 -0.08672,9.6952 -0.09445,14.52689c0.08771,0.07603 0.17672,0.15039 0.26737,0.22259c3.7361,2.97558 7.59318,5.59318 11,9c1.03511,1.03511 2.2998,2.02448 3.61898,2.68764c0.60682,0.30506 1.99224,0.14779 2.40382,0.70842c2.01845,2.74943 2.70943,8.01001 2.70943,11.37171c0,1 0.37609,2.07342 0,3c-0.67923,1.67344 -3.01524,4.72887 -4.73223,5.76777c-0.64154,0.38818 -1.34631,0.65929 -2.04648,0.93342c0.189,0.35257 0.05811,1.01941 -0.22129,1.29881c-1.11181,1.11181 -2.66667,1.66667 -4,2.5c-1.78368,0 -1.98814,0.5864 -3.70943,0.87171c-1.71896,0.28492 -3.79174,0.47128 -5.91365,0.53689c0.28341,1.99408 0.62308,3.95541 0.62308,6.0914l-0.00021,1.96754c0,0 0.03246,2.49979 -2.46732,2.53225zM236.5,157c0,-0.28051 0.00792,-0.57151 0.02101,-0.87023c-1.47891,0.41274 -2.95252,0.37023 -4.52101,0.37023c-0.38476,0 -0.76953,0 -1.15429,0c-0.00985,0.74736 -0.7162,2.09412 -0.94472,2.70797c0.36124,0.01487 0.60287,0.69546 0.86678,1.02426c1.71058,2.13125 3.06176,4.06176 5,6c0.21268,0.21268 0.46235,0.37042 0.73223,0.49881c0,-3.24368 0,-6.48736 0,-9.73104zM240.37171,175.79057c-0.47009,2.79423 0.12829,6.31972 0.12829,9.20943c0,6.16833 0,12.33667 0,18.505c0.16843,-0.00322 0.33519,-0.005 0.5,-0.005c1.14957,0 3.06953,0.32006 4.20943,0.12829c1.7339,-0.29171 3.16857,-1.03038 4.9406,-1.11946c0.45255,-1.33729 0.96553,-2.75268 1.0594,-2.88054c0.4066,-0.55384 1.43064,-0.04762 2.0228,-0.39606c0.88787,-0.52245 2.00974,-2.8186 3,-3c0.2666,-0.04884 0.17468,1.02232 0.26777,0.76777c0.61649,-1.68584 0.12484,-5.04124 -0.37171,-6.70943c-0.22587,-0.75882 -0.49883,-1.5095 -0.62829,-2.29057c-0.06199,-0.37399 -0.29976,-0.94398 -0.20658,-1.27296c-0.56936,-0.19362 -1.14292,-0.37926 -1.68017,-0.64692c-1.60626,-0.80022 -3.12185,-2.05319 -4.38102,-3.31236c-2.73772,-2.73772 -5.7771,-4.95864 -8.8042,-7.28235c-0.02019,0.10076 -0.03904,0.20243 -0.05632,0.30515z" fill="#68ff66" stroke-width="0.5"/>
        </g>
    </g>
</svg>
