<svg version="1.1" xmlns="http://www.w3.org/2000/svg" xmlns:xlink="http://www.w3.org/1999/xlink" width="61.09839" height="116.4799">
    <g transform="translate(-220.55404,-141.196)">
        <g data-paper-data="{&quot;isPaintingLayer&quot;:true}" fill="none" fill-rule="nonzero" stroke="none" stroke-width="none" stroke-linecap="none" stroke-linejoin="miter" stroke-miterlimit="10" stroke-dasharray="" stroke-dashoffset="0" font-family="none" font-weight="none" font-size="none" text-anchor="none" style="mix-blend-mode: normal">
            <path d="M255.07591,156.63999c0,8.52948 -7.72798,15.44399 -17.26093,15.44399c-9.53295,0 -17.26093,-6.91451 -17.26093,-15.44399c0,-8.52948 7.72798,-15.44399 17.26093,-15.44399c9.53295,0 17.26093,6.91451 17.26093,15.44399z" fill="#9966ff" stroke="none" stroke-width="none" stroke-linecap="butt"/><path d="M244.85259,190.61678c0,15.9217 -3.59555,28.82879 -8.03088,28.82879c-4.43533,0 -8.03088,-12.90709 -8.03088,-28.82879c0,-15.9217 3.59555,-28.82879 8.03088,-28.82879c4.43533,0 8.03088,12.90709 8.03088,28.82879z" data-paper-data="{&quot;origPos&quot;:null}" fill="#9966ff" stroke="none" stroke-width="0" stroke-linecap="butt"/>
            <path d="M266.26826,192.67598c0,2.04708 -6.73012,3.70656 -15.03215,3.70656c-8.30203,0 -15.03215,-1.65948 -15.03215,-3.70656c0,-2.04708 6.73012,-3.70656 15.03215,-3.70656c8.30203,0 15.03215,1.65948 15.03215,3.70656z" data-paper-data="{&quot;origPos&quot;:null}" fill="#9966ff" stroke="none" stroke-width="0" stroke-linecap="butt"/>
            <path d="M281.48039,178.99643c1.14167,1.69915 -3.51908,6.83003 -10.41007,11.46013c-6.891,4.63011 -13.40276,7.00611 -14.54443,5.30697c-1.14167,-1.69915 3.51908,-6.83002 10.41008,-11.46013c6.891,-4.63011 13.40276,-7.00612 14.54443,-5.30697z" data-paper-data="{&quot;origPos&quot;:null,&quot;origRot&quot;:0}" fill="#9966ff" stroke="none" stroke-width="0" stroke-linecap="butt"/>
            <path d="M259.54041,228.91183c-1.49768,1.39552 -7.29982,-2.39705 -12.95944,-8.47096c-5.65962,-6.07391 -9.03355,-12.12907 -7.53588,-13.5246c1.49768,-1.39552 7.29981,2.39705 12.95944,8.47096c5.65962,6.07391 9.03356,12.12907 7.53588,13.5246z" data-paper-data="{&quot;origPos&quot;:null,&quot;origRot&quot;:0}" fill="#9966ff" stroke="none" stroke-width="0" stroke-linecap="butt"/>
            <path d="M263.3214,253.80874c-2.01995,0.33217 -4.74951,-6.03949 -6.09665,-14.23149c-1.34714,-8.192 -0.80172,-15.10221 1.21823,-15.43438c2.01995,-0.33217 4.74951,6.03948 6.09665,14.23148c1.34714,8.192 0.80172,15.10221 -1.21822,15.43438z" data-paper-data="{&quot;origPos&quot;:null,&quot;origRot&quot;:0}" fill="#9966ff" stroke="none" stroke-width="0" stroke-linecap="butt"/>
            <path d="M252.18521,231.44079c-1.49768,1.39552 -7.29982,-2.39706 -12.95945,-8.47096c-5.65963,-6.0739 -9.03355,-12.12907 -7.53588,-13.5246c1.49767,-1.39552 7.29981,2.39705 12.95944,8.47096c5.65963,6.0739 9.03356,12.12908 7.53588,13.5246z" data-paper-data="{&quot;origPos&quot;:null,&quot;origRot&quot;:0}" fill="#9966ff" stroke="none" stroke-width="0" stroke-linecap="butt"/>
            <path d="M240.35566,257.61323c-1.91323,-0.72807 -1.07055,-7.60837 1.88218,-15.36756c2.95272,-7.75919 6.89735,-13.45905 8.81058,-12.73098c1.91323,0.72807 1.07055,7.60836 -1.88217,15.36755c-2.95272,7.75919 -6.89735,13.45905 -8.81058,12.73099z" data-paper-data="{&quot;origPos&quot;:null,&quot;origRot&quot;:0}" fill="#9966ff" stroke="none" stroke-width="0" stroke-linecap="butt"/>
            <path d="M241.14603,159.72879l11.94336,2.88288" fill="none" stroke="#000000" stroke-width="0.5" stroke-linecap="round"/>
            <path d="M244.85259,146.96175l5.76576,3.70656" fill="none" stroke="#000000" stroke-width="0.5" stroke-linecap="round"/>
            <path d="M253.08938,154.37487l2.47104,2.0592l-4.1184,0.82368" fill="none" stroke="#000000" stroke-width="0.5" stroke-linecap="round"/>
        </g>
    </g>
</svg>
