<svg version="1.1" xmlns="http://www.w3.org/2000/svg" xmlns:xlink="http://www.w3.org/1999/xlink" width="46.18399" height="42.83135">
    <g transform="translate(-216.81852,-157.69855)">
        <g data-paper-data="{&quot;isPaintingLayer&quot;:true}" fill="#1f122c" fill-rule="nonzero" stroke="none" stroke-width="0" stroke-linecap="butt" stroke-linejoin="miter" stroke-miterlimit="10" stroke-dasharray="" stroke-dashoffset="0" font-family="none" font-weight="none" font-size="none" text-anchor="none" style="mix-blend-mode: normal">
            <path d="M220.69786,167.87812l36.65375,0l0,22.65119h-36.65375z" data-paper-data="{&quot;origPos&quot;:null,&quot;origRot&quot;:0}"/><path d="M251.05915,190.2339l5.35392,0l0,10.296l-5.35392,0z" data-paper-data="{&quot;origRot&quot;:0}"/>
            <path d="M242.41051,196.41149l9.88416,0v4.1184l-9.88416,0z" data-paper-data="{&quot;origPos&quot;:null,&quot;origRot&quot;:0}"/>
            <path d="M250.23547,157.69855l5.76576,0l0,13.17887l-5.76576,0z" data-paper-data="{&quot;origPos&quot;:null,&quot;origRot&quot;:0}"/>
            <path d="M242.41051,157.73287l10.296,0v4.4616l-10.296,0z" data-paper-data="{&quot;origPos&quot;:null,&quot;origRot&quot;:0}"/>
            <path d="M254.76571,174.58398l8.2368,0v9.47232h-8.2368z" data-paper-data="{&quot;origPos&quot;:null,&quot;origRot&quot;:0}"/>
            <g data-paper-data="{&quot;origPos&quot;:null,&quot;origRot&quot;:0}">
                <path d="M225.46716,189.0563l5.35392,0l0,10.29599l-5.35392,0z"/><path d="M216.81852,195.23389l9.88416,0l0,4.1184l-9.88416,0z" data-paper-data="{&quot;origPos&quot;:null}"/>
            </g>
            <g data-paper-data="{&quot;origPos&quot;:null,&quot;origRot&quot;:0}">
                <path d="M225.05532,158.16831l5.76576,0l0,13.17887h-5.76576z" data-paper-data="{&quot;origPos&quot;:null}"/><path d="M217.23036,158.20263l10.296,0l0,4.4616l-10.296,0z" data-paper-data="{&quot;origPos&quot;:null}"/>
            </g>
        </g>
    </g>
</svg>
