<svg version="1.1" xmlns="http://www.w3.org/2000/svg" xmlns:xlink="http://www.w3.org/1999/xlink" width="75.77726" height="51.83262">
    <g transform="translate(-203.90412,-157.90511)">
        <g data-paper-data="{&quot;isPaintingLayer&quot;:true}" fill="none" fill-rule="nonzero" stroke="none" stroke-width="none" stroke-linecap="none" stroke-linejoin="miter" stroke-miterlimit="10" stroke-dasharray="" stroke-dashoffset="0" font-family="none" font-weight="none" font-size="none" text-anchor="none" style="mix-blend-mode: normal">
            <path d="M213.14092,199.26542v-35.41822h63.0115v35.41822z" stroke="#07ff00" stroke-width="0.5" stroke-linecap="butt"/><path d="M220.96588,204.41341c0,2.38825 -2.30483,4.32432 -5.148,4.32432c-2.84316,0 -5.148,-1.93607 -5.148,-4.32432c0,-2.38825 2.30484,-4.32432 5.148,-4.32432c2.84316,0 5.148,1.93606 5.148,4.32432z" data-paper-data="{&quot;origPos&quot;:null}" stroke="#07ff00" stroke-width="2" stroke-linecap="butt"/>
            <path d="M278.68138,203.23581c0,2.38825 -2.30483,4.32432 -5.14799,4.32432c-2.84316,0 -5.148,-1.93607 -5.148,-4.32432c0,-2.38825 2.30484,-4.32431 5.148,-4.32431c2.84316,0 5.14799,1.93606 5.14799,4.32431z" data-paper-data="{&quot;origPos&quot;:null}" stroke="#07ff00" stroke-width="2" stroke-linecap="butt"/>
            <path d="M204.90412,164.25903v-5.35392h11.11968v5.35392z" stroke="#07ff00" stroke-width="2" stroke-linecap="butt"/>
            <path d="M213.9646,172.49583h61.36414" stroke="#07ff00" stroke-width="0.5" stroke-linecap="round"/>
            <path d="M212.72908,179.90894h63.01149" stroke="#07ff00" stroke-width="0.5" stroke-linecap="round"/>
            <path d="M213.9646,187.7339h61.77598" stroke="#07ff00" stroke-width="0.5" stroke-linecap="round"/>
            <path d="M213.55276,194.73518h62.59966" stroke="#07ff00" stroke-width="0.5" stroke-linecap="round"/>
            <path d="M240.32235,164.25903v33.77087" stroke="#07ff00" stroke-width="0.5" stroke-linecap="round"/>
            <path d="M218.90668,164.25903v34.59455" stroke="#07ff00" stroke-width="0.5" stroke-linecap="round"/>
            <path d="M269.97482,164.67087v32.53535" stroke="#07ff00" stroke-width="0.5" stroke-linecap="round"/>
        </g>
    </g>
</svg>
