<svg version="1.1" xmlns="http://www.w3.org/2000/svg" xmlns:xlink="http://www.w3.org/1999/xlink" width="284.05969" height="364.70317" viewBox="0,0,284.05969,364.70317">
    <g transform="translate(-72.44031,0.01408)">
        <g data-paper-data="{&quot;isPaintingLayer&quot;:true}" fill="none" fill-rule="nonzero" stroke="none" stroke-width="none" stroke-linecap="butt" stroke-linejoin="miter" stroke-miterlimit="10" stroke-dasharray="" stroke-dashoffset="0" font-family="none" font-weight="none" font-size="none" text-anchor="none" style="mix-blend-mode: normal">
            <ellipse cx="244" cy="124" transform="scale(0.5,0.5)" rx="0" ry="0" fill="#acff9e" stroke="#acff9e" stroke-width="1.5"/><path d="M130.99928,21.4427c5.76762,-0.2984 7.27679,5.73828 7.27679,5.73828l-0.73139,0.53039c1.11654,1.1111 1.95532,2.78048 1.95532,5.28863c0,7.5 -7.5,7.5 -7.5,7.5c-4.5,0 -9,0 -13.5,0c-2.28298,0 -5.27128,-0.46654 -7.5,0c-0.17762,0.03718 0.43682,0.36352 0.28543,0.46358c-0.74878,0.49486 -1.64808,0.71753 -2.5,1c-4.8984,1.62416 -9.97884,2.53918 -14.96641,3.81249c-0.86792,0.21698 -2.46113,0.7105 -3.41598,1.09282c-0.10624,0.19713 -0.21315,0.3802 -0.28791,0.50282c-0.74468,1.22132 -1.60674,2.36815 -2.48031,3.50217c0.26662,0.03672 0.1074,0.33511 -0.10374,0.681c0.50128,0.95773 -0.22499,3.38684 -0.03108,4.44512c0.05283,0.28829 -0.08992,-1.08114 0.11512,-0.87171c0.36871,0.3766 0.25828,1.03165 0.5,1.5c0.17874,0.34631 2.3419,2.22213 3.18818,3.06841c2.12444,2.12444 5.44286,4.44619 7,7c0.86737,1.42254 1.59814,2.92607 2.31182,4.43159c0.22576,0.47625 0.00467,1.31993 0.5,1.5c0.459,0.16686 -0.7994,-1.45966 -0.31182,-1.43159c1.17656,0.06774 1.66667,1.66667 2.5,2.5c0.24558,0.24558 0.50788,0.47835 0.78708,0.68711c0.32497,0.04827 0.69475,0.11619 0.90962,0.11619c0.5,0 1,0 1.5,0c2,0 4,0 6,0c5.5,0 11,0 16.5,0c0.63943,-0.18862 1.82822,-0.64416 2,0h2c4.14214,0 7.5,3.35786 7.5,7.5c0,4.14214 -3.35786,7.5 -7.5,7.5h-1.2954c-0.2419,0.25394 -1.15789,0.5189 -1.54434,0.74038c-0.91588,0.52488 -1.86709,0.98565 -2.80615,1.46783c-1.92329,0.98756 -3.89978,1.81033 -5.98239,2.40692c-0.80724,0.23124 -1.62457,0.42567 -2.43858,0.63194c-0.25296,0.17847 -0.53152,0.38266 -0.62982,0.55624c-0.06703,0.11836 0.44281,-0.07984 0.4049,0.0508c-0.67976,2.34255 -1.90999,4.61815 -2.59308,7.01761c-0.02498,0.08774 -1.60275,4.53529 -0.61512,3.12829c0,0.94789 -0.11564,2.04882 -0.11163,3.08722c0.19534,0.00646 0.63798,0.83252 0.91493,1.10948c0.33333,0.33333 0.66667,0.66667 1,1c1.55529,1.55529 2.59537,3.4302 3.93708,5.14305c3.83583,4.8969 9.48464,9.57343 15.63133,11.54513c3.10994,1.03665 7.8602,2.16859 11.12829,1.11512c0.43465,-0.14011 -1.5694,0.19453 -1.3541,-0.2082c0.3514,-0.65732 1.33333,-0.66667 2,-1c1.69345,-0.84672 3.40664,-1.65526 5.08943,-2.52261c-0.02763,-0.0096 -0.04204,-0.03253 -0.03862,-0.07248c0.13268,-1.5542 2.37052,-2.03496 3.64305,-2.93708c4.84842,-3.43713 9.66333,-5.42918 15.4243,-6.13027c0.84185,-0.84185 1.6837,-1.6837 2.52555,-2.52555c-0.32448,-0.16423 0.3311,-1.06443 0.59528,-1.47552c0.99698,-1.5514 2.15004,-2.99944 3.31182,-4.43159c0.44547,-0.54914 0.80142,-1.39054 1.5,-1.5c7.07331,-1.10829 8.3853,-1.85322 12.6574,0.5951c1.31189,0.75184 2.62901,1.5188 3.80615,2.46783c0.25485,0.20546 0.50279,0.41912 0.74672,0.63749c0.29029,0.01421 0.65232,0.04806 1.09303,0.10289c2.70356,0.33634 5.29302,1.05456 7.87171,1.88488c0.5,0.16667 0.97568,0.4465 1.5,0.5c0.17743,0.0181 -0.54528,-0.34385 -0.37171,-0.38488c2.21145,-0.52271 5.80499,0.23634 7.81902,1.22393c4.44745,2.18084 7.97328,5.78132 12.34123,8.03569c0.1401,0.07231 -0.44536,-0.39096 -0.28854,-0.37475c0.52425,0.0542 1.02783,0.26584 1.5,0.5c1.66789,0.82715 3.06038,2.18229 4.78854,2.87475c0.19652,0.07875 -0.5529,-0.53114 -0.34123,-0.53569c1.06407,-0.0229 2.1341,0.46789 3.18098,0.27607c0.28829,-0.05283 -1.08114,0.08992 -0.87171,-0.11512c1.00412,-0.98307 2.69232,-0.80872 4.05269,-1.16094c0.99809,-0.24952 2.01593,-0.42397 3.04059,-0.54298c-0.25278,-1.80674 1.15791,-4.5365 1.6633,-6.05266c0.05243,-0.1573 0.10486,-0.31459 0.1573,-0.47189c-0.04898,-0.29614 -0.09685,-0.60336 -0.1573,-0.78469c-0.33333,-1 -0.66667,-2 -1,-3c-1.09402,-3.28206 -1.38488,-6.41999 -1.38488,-9.87171c0,-4.2968 0.15851,-5.54484 2.25962,-10.16025c0.24898,-0.54692 0.47429,-1.2089 1,-1.5c2.86521,-1.58653 6.01888,-2.74946 9.24038,-3.33975c0.28829,-0.05283 -1.08114,0.08992 -0.87171,-0.11512c0.75321,-0.73742 2,-0.66667 3,-1c2.97595,-0.99198 3.81147,-2.11616 8.63872,-3.28283c6.65046,-1.60731 15.53695,-1.21822 22.1047,0.28283c1.96548,0.65516 3.51915,0.10261 7,1c3.72724,0.96092 7.68554,3.11079 11.5,3.5c0.17743,0.0181 -0.54528,-0.34385 -0.37171,-0.38488c1.73131,-0.40923 4.21495,0 6,0c4,0 8,0 12,0c1.48282,0 2.96564,0 4.44846,0c-0.30705,-0.68358 -0.57957,-1.38312 -0.85108,-2.08235c-0.21779,-0.01113 -0.69928,-0.78403 -0.90069,-1.11435c-0.58778,-0.96399 -1.11283,-1.96518 -1.61234,-2.97897c-0.32303,-0.22105 -0.88074,-0.89616 -1.24461,-1.08395c-0.1401,-0.07231 0.44536,0.39096 0.28854,0.37475c-1.05798,-0.10938 -3.00519,-1.27697 -4.09504,-1.94973c-0.35135,-0.0377 -0.79318,-0.12585 -1.03325,-0.16539c-1.30624,-0.21518 -2.58978,-0.55438 -3.87171,-0.88488c-1.23148,-0.31749 -1.83421,-0.2201 -3.12829,-0.15415v0.03903h-3c-4.14214,0 -7.5,-3.35786 -7.5,-7.5c0,-3.56926 2.49328,-6.55618 5.83319,-7.31412l1.8478,-0.46195c0.09411,-0.68071 1.31666,-0.42745 2,-0.5c3.45759,-0.36707 7.39947,0.40265 10.81902,-0.22393c0.28829,-0.05283 -1.08114,0.08992 -0.87171,-0.11512c0.3766,-0.36871 0.97996,-0.41433 1.5,-0.5c0.86366,-0.14227 1.73584,-0.22559 2.60933,-0.29323c0.05963,-0.28805 1.1536,-0.60959 1.60213,-0.83203c1.53568,-0.76158 3.2162,-1.19208 4.78854,-1.87475c0.74622,-0.32399 1.46235,-0.71273 2.17182,-1.11293c-0.06802,0.00919 -0.10893,-0.01065 -0.10341,-0.07524c0.0401,-0.4697 0.7677,-0.58981 1,-1c0.06703,-0.11836 -0.44281,0.07984 -0.4049,-0.0508c0.32193,-1.10944 1.92693,-3.45632 2.46783,-4.30615c2.06254,-3.09382 4.73002,-7.83796 5.12525,-11.71146c0.0181,-0.17743 -0.34385,0.54528 -0.38488,0.37171c-0.32764,-1.38615 -0.00886,-3.47185 -0.00018,-4.93996c-0.9662,-0.41745 -1.90612,-0.89397 -2.85392,-1.35184c-1.84004,-0.8889 -3.57416,-1.44526 -5.51761,-2.09308c-0.25157,-0.08386 -0.49849,-0.18586 -0.74777,-0.27862c0.1297,0.05652 0.19903,0.11476 0.11948,0.1635c-0.73445,0.4499 -3.61244,0 -4.5,0c-5.07806,0 -10.99158,0.82503 -16,0c-2.11658,-0.34866 -6.33403,-1.14243 -8.37171,-2.38488c-0.82085,-0.5005 -1.60805,-1.05402 -2.38033,-1.62843c-5.22668,-0.18363 -10.20027,-2.23177 -15.11967,-3.87157c-1.33893,-0.44631 -2.55841,-1.19111 -3.71899,-2.02172c-0.16065,-0.03005 -0.3059,-0.06324 -0.4093,-0.09341c-2.16145,-0.6307 -4.26743,-1.44594 -6.3541,-2.2918c-2.60408,-1.0556 -5.18951,-2.57488 -8.01761,-3.09308c-0.0086,-0.00157 -0.01585,-0.0029 -0.02185,-0.00398c-0.00035,0.00053 -0.00071,0.00106 -0.00106,0.00159c0.15677,0.03618 1.11925,0.24965 0.89462,0.38726c-0.42176,0.25836 -0.88123,0.34019 -1.36235,0.31434c-0.29909,0.44864 -0.59818,0.89728 -0.89728,1.34592c-2.33292,3.49937 -5.05781,4.98803 -8.86867,6.95487c-0.09317,0.04809 0.36537,0.05389 0.28854,0.12525c-1.02279,0.95001 -2.93404,1.6705 -4.23992,2.16485c0.00193,0.23083 -0.75765,0.75085 -1.11703,0.89807c-2.20519,0.90338 -4.49951,1.58721 -6.8033,2.1967c-0.2359,0.06241 -0.48167,0.04244 -0.72866,0.01611c0.1024,0.01582 0.15489,0.04563 0.10036,0.09902c-2.2515,2.20432 -9.20306,0.88488 -12.37171,0.88488c-7.30938,0 -15.21379,-0.74345 -22.5,0c-0.29158,0.02975 1.08114,-0.08992 0.87171,0.11512c-1.2967,1.26953 -3.56165,0.75519 -5.37171,0.88488c-5.23182,0.37485 -10.43486,-1.29527 -15.37171,-2.88488c-3.56425,-1.18808 -7.09274,-2.26943 -10.48239,-3.90692c-0.04474,-0.02161 -0.09049,-0.04207 -0.13706,-0.06162c-0.12735,0.2227 -1.09181,-0.03756 -1.50883,-0.14658c-1.8208,-0.47599 -3.59463,-1.12386 -5.3541,-1.7918c-0.21134,-0.08023 -0.4132,-0.18275 -0.61169,-0.29303c-0.00076,0.02876 -0.01162,0.05712 -0.03421,0.08482c-0.4214,0.51659 -1.36057,0.18862 -2,0c-2.51528,-0.74196 -4.82989,-2.05689 -7.16025,-3.25962c-0.1401,-0.07231 0.44536,0.39096 0.28854,0.37475c-1.52637,-0.15781 -2.9882,-1.22299 -4.5,-1.5c-0.31243,-0.05725 1.14256,0.21896 0.87171,0.38488c-0.99485,0.60942 -2.33333,0 -3.5,0c-7.20348,0 -14.84634,-0.72992 -22,0c-0.29158,0.02975 1.08114,-0.08992 0.87171,0.11512c-1.32314,1.29541 -3.83942,0.7887 -5.7951,0.80014c0.08144,0.11329 0.15901,0.21375 0.22669,0.28143c0.57316,0.57316 1.09048,1.20935 1.69598,1.746zM128.50914,19.89224c-0.00707,0.00421 -0.01416,0.00838 -0.02128,0.01251c0.00243,0.03208 0.00638,0.06385 0.01214,0.09525c0.01614,0.0881 0.01402,0.02139 0.00914,-0.10776zM244.68094,29.50633c-0.22914,-0.0248 -0.45842,-0.0471 -0.68094,-0.00633c-0.19344,0.03544 0.35944,-0.01716 0.68094,0.00633zM332.1295,30.24762c-0.1644,-0.05456 -0.33082,-0.10127 -0.50121,-0.13249c-0.17075,-0.03129 0.18639,0.03702 0.50121,0.13249zM115.50272,109.7045c-0.02289,-0.04431 -0.04452,-0.08889 -0.06464,-0.1337c0.01596,0.14629 0.03634,0.2896 0.06192,0.4292c0.02288,0.12489 0.00907,-0.06132 0.00272,-0.2955zM87.14048,52.27498c-0.01109,0.03354 -0.0197,0.06588 -0.02535,0.09673c-0.01695,0.09253 -0.00466,0.03004 0.02535,-0.09673zM114.93886,25.34233c-1.04577,-1.94658 -1.63005,-4.17399 -1.43886,-6.84233c0.12969,-1.81006 0.31102,-3.65013 0.88488,-5.37171c1.74781,-2.08114 3.3217,-4.3217 5.24342,-6.24342c1.21617,-1.21617 7.21085,-2.19365 8.37171,-2.38488c0.49335,-0.08127 1.07364,-0.26118 1.5,0c0.27085,0.16592 -1.18414,0.44212 -0.87171,0.38488c2.50669,-0.45931 4.75884,-1.38488 7.37171,-1.38488c6.66667,0 13.33333,0 20,0c4.17027,0 7.96621,0.35585 11.87171,1.88488c1.10634,0.43314 2.22414,0.84688 3.28854,1.37475c0.44313,0.21976 1.51624,0.53625 1.59953,0.8216c1.54286,0.1654 3.08877,0.34375 4.59432,0.71057c0.72417,0.17644 1.6486,0.34268 2,1c0.2153,0.40273 -1.61617,-0.16578 -1.3541,0.2082c0.28694,0.40947 1.00384,-0.06183 1.5,0c1.62684,0.20272 3.26799,0.37715 4.8541,0.7918c1.81832,0.47535 1.6367,0.99352 3.01761,1.59308c2.38331,1.03477 5.03374,1.67791 7.5,2.5c1.86523,0.66759 5.61789,0.64686 7,2c0.20943,0.20504 -1.16,0.0623 -0.87171,0.11512c1.07913,0.19773 3.58365,-0.56133 4.5,0c0.27085,0.16592 -1.18414,0.44212 -0.87171,0.38488c2.50669,-0.45931 4.75884,-1.38488 7.37171,-1.38488c6.83333,0 13.66667,0 20.5,0c2.00736,0 4.28146,0.46577 6.12829,0.38488c0.81844,-0.03585 3.39293,-0.68479 5.18381,-1.04428c0.91215,-0.69084 1.8404,-1.36074 2.81619,-1.95572c0.44999,-0.27438 0.97575,-0.4458 1.5,-0.5c0.15682,-0.01621 -0.42864,0.44705 -0.28854,0.37475c1.65438,-0.85385 3.12065,-2.0476 4.78854,-2.87475c0.16241,-0.08054 0.41589,-0.22182 0.66986,-0.35292c0.82049,-1.23074 1.64098,-2.46147 2.46147,-3.69221c2.57769,-3.86653 7.50736,-6.98978 12.11209,-5.45487c-0.29057,0.03837 -1.16,0.0623 -0.87171,0.11512c1.76576,0.32355 3.60042,0.09309 5.37171,0.38488c2.86188,0.47143 7.86111,2.13655 9.98239,3.90692c0.20263,0.16911 -0.57862,0.56945 -0.3541,0.7082c0.42533,0.26287 1.01663,-0.12788 1.5,0c2.30379,0.60949 4.59812,1.29332 6.8033,2.1967c0.34547,0.14152 1.06076,0.62755 1.1139,0.87001c0.81817,0.27272 1.63634,0.54545 2.45451,0.81817c2.71736,0.90579 5.35517,2.11512 8.12829,2.11512c2.43443,0.73223 4.93088,1.28334 7.3033,2.1967c0.34896,0.13435 1.06426,0.62604 1.11453,0.87022c0.31796,0.10599 0.63592,0.21197 0.95388,0.31796c0.5,0.16667 1.1234,0.13129 1.5,0.5c0.20943,0.20504 -1.16,0.0623 -0.87171,0.11512c8.3844,1.53631 17.61956,-1.86584 25.87171,0.88488c5.37283,1.79094 10.86329,3.94965 15.36867,7.45487c2.87077,2.23348 3.25962,6.75793 3.25962,10.16025c0,9.23274 -2.04823,16.84316 -7.25962,24.66025c-1.84751,2.40879 -2.5531,5.58764 -4.93708,7.64305c-1.88005,1.62093 -4.67503,3.8184 -7.39131,4.81437c0.49733,0.60191 0.9125,1.13706 1.20313,1.51062c0.31947,0.41063 1.0072,1.42909 0.51967,1.4978c0.87358,1.13403 1.73565,2.28087 2.48033,3.5022c0.27438,0.44999 0.4458,0.97575 0.5,1.5c0.01621,0.15682 -0.44705,-0.42864 -0.37475,-0.28854c1.44906,2.80762 2.53042,5.86042 3.03569,8.97927c0.87603,5.40739 -6.89668,11.71074 -9.27607,13.68098c-0.77022,0.63778 -2,0 -3,0c-2.66667,0 -5.33333,0 -8,0c-7.31792,0 -15.13045,0.70639 -22.37171,-0.38488c-2.75446,-0.4151 -5.86778,-1.62259 -8.5,-2.5c-1,-0.33333 -2.24679,-0.26258 -3,-1c-0.20943,-0.20504 1.16329,-0.08537 0.87171,-0.11512c-2.66286,-0.2717 -5.27148,-0.01813 -7.87171,-0.88488c0.29057,-0.03837 1.16407,-0.09445 0.87171,-0.11512c-2.626,-0.18567 -5.36903,0 -8,0c-2.34007,0 -5.49275,0.51458 -7.76701,0.39795c-0.22024,-0.01129 0.14274,-0.70449 -0.07274,-0.65758c-2.10865,0.4591 -4.08944,2.64171 -6.28854,3.37475c-1.48141,0.4938 -2.89921,0.96818 -4.37171,1.35023c0,0.17821 0,0.35643 0,0.53464c0,1 0.52236,2.14727 0,3c-0.16592,0.27085 -0.44212,-1.18414 -0.38488,-0.87171c0.9327,5.09018 3,8.11084 3,13.74342c0,0.68704 -1.02634,4.0162 -1.5,4.5c-0.20504,0.20943 -0.0623,-1.16 -0.11512,-0.87171c-0.88388,4.82374 -0.06373,10.61091 -5.83975,13.24038c-1.84896,0.84172 -3.72289,1.64823 -5.66025,2.25962c-0.47682,0.15047 -1.00875,0.09315 -1.5,0c-0.12765,-0.0242 0.44722,-0.24499 0.31902,-0.22393c-0.6781,0.11136 -1.33333,0.33333 -2,0.5c-2.31,0.54115 -4.44269,1.33248 -6.81902,1.72393c-4.48598,0.73897 -9.48675,-1.8959 -12.37171,-3.38488c-3.90599,-2.01595 -7.49788,-3.52415 -11.12829,-6.11512c-0.6783,-0.4841 -1.49362,-0.83817 -2,-1.5c-0.1452,-0.18978 0.89046,-0.10896 0.68098,-0.22393c-2.94507,-1.61638 -6.80546,-0.57853 -10.05269,-1.66094c-4.36738,-1.56315 -9.87316,-1.69942 -13.28854,-4.37475c-0.21443,-0.16796 -0.43017,-0.3351 -0.64851,-0.49881c-0.28203,0.5286 -0.57616,1.05039 -0.88794,1.56173c-2.5021,4.10359 -9.02641,8.1967 -13.3033,8.1967c0.83884,-0.86855 -3.41703,1.04159 -4.12829,1.11512c-0.15682,0.01621 0.42864,-0.44705 0.28854,-0.37475c-3.37103,1.73984 -5.69413,4.42517 -8.80615,6.46783c-9.06154,5.94776 -19.01975,7.30894 -29.22581,3.90692c-10.56304,-3.59631 -17.7438,-10.77404 -24.43159,-19.31182c-1.99982,-2.55301 -3.98227,-3.93102 -5.81182,-6.93159c-1.72706,-2.83249 -1.38488,-6.68552 -1.38488,-9.87171c0.35432,-5.25158 1.8471,-11.3517 4.38984,-16.126c-4.43623,-0.32946 -8.56111,-1.43867 -12.19314,-5.0707c-2.23645,-2.23645 -4.01243,-4.13155 -5.81182,-6.93159c-0.26418,-0.41109 -0.91976,-1.31129 -0.59528,-1.47552c-0.19763,-0.19763 -0.39526,-0.39526 -0.59289,-0.59289c-1.66667,-1.66667 -3.33333,-3.33333 -5,-5c-5.33538,-5.33538 -8.756,-10.99716 -8.1967,-18.8033c0.12492,-1.74349 0.10158,-3.71933 0.88488,-5.37171c0.71368,-1.50553 1.44445,-3.00905 2.31182,-4.43159c0.23041,-0.37788 0.82737,-1.33498 0.97674,-1.06818c0.9714,-1.67647 1.97762,-3.34103 3.16631,-4.8689c2.09467,-2.69235 7.17511,-3.74416 10.34123,-4.53569c4.32726,-1.06569 8.80623,-1.76685 13.03359,-3.18751c2.58721,-0.86946 5.10768,-2.00798 7.78543,-2.53642c1.18766,-0.23438 2.56471,-0.22198 3.93886,-0.15767zM189.87665,116.58171c0.10669,-0.02335 0.21342,-0.04605 0.32014,-0.06814c0.03971,-0.11874 0.02842,-0.18188 -0.08167,-0.14186c-0.11122,0.04043 -0.18632,0.11432 -0.23847,0.21zM243.88798,121.61125c0.00701,-0.03865 0.00569,-0.0338 -0.00212,0.0002c0.00071,-0.00007 0.00141,-0.00013 0.00212,-0.0002z" fill="#acff9e" stroke="none" stroke-width="0.5"/>
            <path d="M205.48112,141.30688c-0.00717,0.40905 -0.00848,0.81121 0.01888,1.19312c0.35408,4.94193 0,10.04358 0,15c0,6.62543 0.89106,13.95304 0,20.5c-0.26731,1.96401 -0.90271,3.86311 -1.22393,5.81902c-0.02106,0.1282 0.19973,-0.44666 0.22393,-0.31902c0.45028,2.37472 -0.97204,4.61865 -1.38488,6.87171c-0.05725,0.31243 0.21896,-1.14256 0.38488,-0.87171c0.93468,1.52583 -0.39068,3.56097 -0.72393,5.31902c-0.46003,1.8401 -1.32172,3.70138 -1.66094,5.55269c-0.05725,0.31243 0.21896,-1.14256 0.38488,-0.87171c0.52236,0.85273 0,2 0,3c0,2.53736 -0.81895,4.85308 -1.22393,7.31902c-0.02106,0.1282 0.19973,-0.44666 0.22393,-0.31902c0.22121,1.16664 0.19312,3.32765 0,4.5c-0.98772,5.99606 -3.39208,12.62203 -5.53642,18.28543c-0.5846,1.46151 -1.55141,3.46519 -1.84845,5.08628c-0.05725,0.31243 0.21896,-1.14256 0.38488,-0.87171c0.26118,0.42636 0.08127,1.00665 0,1.5c-0.31244,1.89669 -1.14036,6.91405 -2.22393,8.81902c-0.99594,1.7509 -1.9482,3.71372 -3.33084,5.16813c0.20084,0.42503 -0.50577,1.26148 -0.66916,1.83187c-0.67684,2.36276 -1.41208,4.04282 -2.60718,6.11397c-0.03545,0.35635 -0.12806,0.81919 -0.16888,1.06701c-0.30055,1.82453 -1.0516,3.55287 -1.38488,5.37171c-0.05725,0.31243 0.25658,-0.58114 0.38488,-0.87171c0,2.53736 -0.81895,4.85308 -1.22393,7.31902c-0.02106,0.1282 0.19973,-0.44666 0.22393,-0.31902c0.77469,4.08559 -2.56989,10.42676 -3.88488,14.37171c-0.8522,2.55659 -1.61254,4.66177 -2.90157,6.97163c-0.00819,0.36987 -0.10915,0.90182 -0.21355,1.15666c-0.8898,2.17205 -2.01468,4.24545 -3.18382,6.28089c0.15345,-0.15381 0.30687,-0.30765 0.45989,-0.46187c-0.68076,2.72305 -1.98362,5.01312 -3.53569,7.34123c-0.17731,0.26597 -0.35463,0.53194 -0.53194,0.79791c-0.02321,0.35819 -0.11443,0.81236 -0.20844,1.04184c-0.89307,2.18002 -2.02294,4.26067 -3.1967,6.3033c-1.85384,3.22615 -4.30486,6.45061 -6.06292,9.85695c-0.07231,0.1401 0.39096,-0.44536 0.37475,-0.28854c-0.43821,4.2384 -4.04145,6.56988 -6.97288,9.02948c-0.04423,0.359 -0.14225,0.84068 -0.14225,1.09881c0,1 0,2 0,3c0,1.42791 -0.19453,3.07444 -0.14145,4.59305c0.18854,-0.1172 0.72834,0.74872 0.94475,1.10365c0.31598,0.51822 0.61383,1.04719 0.89933,1.58309c1.48403,-0.229 4.2346,0.22021 5.29737,0.22021c12,0 24,0 36,0c2.42201,0 4.55445,0.96027 6.87171,1.38488c0.31243,0.05725 -1.14256,-0.21896 -0.87171,-0.38488c0.85273,-0.52236 2,0 3,0c2.7311,0 5.29187,0.77029 7.97087,1.14564c1.40927,0.19745 3.89101,-0.14564 5.52913,-0.14564c5.16667,0 10.33333,0 15.5,0c12.66667,0 25.33333,0 38,0c2.25816,0 4.51632,0 6.77447,0c-0.28898,-0.50199 -0.58319,-1.04093 -0.8896,-1.62829c-1.26914,-3.80741 -2.49665,-5.1601 -4,-9c-1.52987,-3.90765 -2.67271,-8.01814 -4,-12c-0.97986,-2.93958 -1.52136,-6.20865 -2.66094,-9.05269c-0.10439,-0.26053 0.26744,0.99955 0.03569,0.84123c-0.86605,-0.59164 -2.33608,-4.69605 -2.37475,-4.78854c-0.33322,-0.99967 -1.15708,-1.76742 -1.62525,-2.71146c-1.59782,-3.22191 -1.94721,-7.80053 -3.87475,-10.78854c-0.47998,-0.74406 -1.4561,-1.09701 -1.88488,-1.87171c-1.44804,-2.61627 -1.7796,-5.54066 -3.11512,-8.12829c-1.29657,-2.51217 -3.30687,-6.92061 -4.5,-10.5c-0.75658,-2.26975 -0.4682,-4.59771 -0.88488,-6.87171c-0.05283,-0.28829 0.08992,1.08114 -0.11512,0.87171c-1.55047,-1.58366 -0.5193,-4.87657 -0.88488,-6.87171c-0.05283,-0.28829 0.08992,1.08114 -0.11512,0.87171c-1.14698,-1.17153 -1.78897,-5.59398 -2.16094,-7.05269c-1.65002,-6.47061 -4.26952,-12.58395 -4.72393,-19.31902c0,-0.5 0.09012,-1.00819 0,-1.5c-0.05283,-0.28829 0.08992,1.08114 -0.11512,0.87171c-0.36871,-0.3766 -0.41433,-0.97996 -0.5,-1.5c-0.2108,-1.27968 -0.29219,-2.57809 -0.38488,-3.87171c-0.03573,-0.49872 0.40947,-1.21306 0,-1.5c-0.37399,-0.26207 0.19453,1.5694 -0.2082,1.3541c-1.72975,-0.92471 -1.62075,-3.42517 -1.70149,-5.58859c-0.3069,-0.04221 -0.67924,-1.1254 -0.83068,-1.60526c-0.72932,-2.31105 -0.82284,-4.77654 -1.25962,-7.16025c-0.05283,-0.28829 0.08992,1.08114 -0.11512,0.87171c-0.73742,-0.75321 -0.66667,-2 -1,-3c-1.10001,-3.30003 -1.83271,-6.73864 -3,-10c-1.12593,-3.37778 -1.25008,-6.40733 -1.88488,-9.87171c-0.05283,-0.28829 0.08992,1.08114 -0.11512,0.87171c-0.73742,-0.75321 -0.66667,-2 -1,-3c-1.20762,-3.62285 -2.45297,-7.15691 -3.23923,-10.90084c-0.48888,-2.32789 -0.22815,-4.69242 -0.64564,-6.97087c-0.05283,-0.28829 0.08992,1.08114 -0.11512,0.87171c-0.36871,-0.3766 -0.41433,-0.97996 -0.5,-1.5c-0.2108,-1.27968 -0.29219,-2.57809 -0.38488,-3.87171c-0.03097,-0.43224 -0.09457,-1.44177 -0.46358,-1.21457c-1.13092,-2.82731 -1.75896,-6.21552 -3.15155,-8.91372c-0.25277,-0.48976 -0.90579,-0.70589 -1.12525,-1.21146c-0.884,-2.03639 -1.42784,-4.20608 -2.03569,-6.34123c-0.01115,-0.03915 -0.06643,-0.19408 -0.14393,-0.40854c-0.21548,-0.06633 -0.64853,-0.81597 -0.88331,-1.10717c-1.99067,-2.46916 -3.1537,-4.47348 -4.31182,-7.43159c-0.01959,-0.05005 -0.0436,-0.10993 -0.07059,-0.17666c-0.98312,-0.73951 -3.16244,-2.9366 -3.61759,-3.39174c-0.63848,-0.63848 -1.43018,-1.30386 -2.21558,-1.99642zM152.50272,344.7045c-0.0251,-0.04857 -0.04868,-0.09747 -0.0704,-0.14665c0.01872,0.14968 0.04112,0.29719 0.06768,0.44215c0.02288,0.12489 0.00907,-0.06132 0.00272,-0.2955zM151.54003,336.08092c0.03846,-0.10935 0.07977,-0.21755 0.12435,-0.3239c-0.17284,0.15949 -0.34121,0.32044 -0.50413,0.48336c-0.15939,0.15939 0.0761,0.0253 0.37977,-0.15946zM202.62474,127.90626c1.01896,-1.3735 2.09397,-2.63259 3.04344,-3.34983c-1.1899,-2.2318 -2.29647,-4.67155 -2.29647,-4.67155l1.5,0.5c4.6301,1.93557 5.74174,2.74259 9.24342,7.24342c0.30026,0.38593 0.92581,1.30879 0.59521,1.47544c0.19766,0.19766 0.39531,0.39531 0.59297,0.59297c1,1 2,2 3,3c2.53911,2.53911 4.89849,4.79361 6.81182,7.93159c0.27438,0.44999 0.4458,0.97575 0.5,1.5c0.01621,0.15682 -0.44705,-0.42864 -0.37475,-0.28854c0.3271,0.63378 0.62312,1.29548 1.06292,1.85695c2.19576,2.80316 5.55929,6.46307 5.47277,10.48428c-0.00455,0.21167 -0.61444,-0.53776 -0.53569,-0.34123c0.69246,1.72816 2.0476,3.12065 2.87475,4.78854c1.22997,2.48017 1.81567,5.50432 2.84845,8.08628c0.64734,2.22689 2.74781,4.8079 1.53642,6.78543c-0.16592,0.27085 -0.44212,-1.18414 -0.38488,-0.87171c1.26021,6.8776 2.74036,13.22107 5,20c0.58991,1.76973 2.41326,5.19292 1.38488,6.87171c-0.16592,0.27085 -0.44212,-1.18414 -0.38488,-0.87171c0.27266,1.48802 1.02106,3.06319 1.5,4.5c1.22966,3.81895 2.22867,7.68601 3.5,11.5c0.69835,2.09504 0.93591,2.6462 1.38488,5.37171c0.05173,0.31406 0.18663,0.97339 0.18298,1.32376c0.67841,1.53008 1.31381,3.08168 1.81702,4.67624c0.12801,0.40564 0.36855,1.35441 0.1565,1.50297c0.01673,0.04832 0.0339,0.09603 0.0517,0.14292c0.66794,1.75947 1.3158,3.5333 1.7918,5.3541c0.12646,0.48374 0.26118,1.07364 0,1.5c-0.16592,0.27085 -0.44212,-1.18414 -0.38488,-0.87171c0.4246,2.31726 1.38488,4.44969 1.38488,6.87171c-0.72044,-1.02635 0.47194,2.46446 0.77607,3.68098c0.8494,3.39761 2.03707,6.63853 3,10c0.75535,2.63681 1.65558,5.29623 2.33906,7.94731c0.45303,1.75724 1.8328,3.82427 0.88488,5.37171c-0.16592,0.27085 -0.44212,-1.18414 -0.38488,-0.87171c0.34885,1.90383 2.47937,5.08499 1.38488,6.87171c-0.04873,0.07955 -0.10698,0.01022 -0.1635,-0.11948c0.09276,0.24929 0.19476,0.4962 0.27862,0.74777c0.61207,1.83621 1.80164,4.08141 2,6c0.01621,0.15682 -0.44705,-0.42864 -0.37475,-0.28854c1.15518,2.23821 4.76114,6.36282 4.37475,9.28854c-0.03127,0.23679 -0.52557,-0.49312 -0.6215,-0.63817c0.00194,0.003 0.00406,0.00629 0.00638,0.00987c1.33384,2.06769 2.92358,3.97546 4.11512,6.12829c1.00189,1.81018 2.2875,5.44465 2.5,7.5c0.01621,0.15682 -0.44705,-0.42864 -0.37475,-0.28854c1.10217,2.13551 2.59961,3.96313 3.37475,6.28854c-0.9257,-0.71276 -0.17704,-0.20015 0.62525,1.21146c0.71603,1.25984 1.45866,2.51197 2.03569,3.84123c0.84671,1.95048 1.15724,4.40185 1.83906,6.44731c1.38551,4.15652 4.05109,9.15805 4.5,13.5c0.01621,0.15682 -0.44705,-0.42864 -0.37475,-0.28854c1.61707,3.13316 3.18098,5.78106 4.31389,9.10791c0.58301,0.58301 1.16602,1.16602 1.74904,1.74904c2.53911,2.53911 4.89849,4.79361 6.81182,7.93159c0.27438,0.44999 0.72616,1.02395 0.5,1.5c-1.8818,3.96099 -4.0678,7.80215 -6.61512,11.37171c-0.29044,0.40699 -1.00128,0.03573 -1.5,0c-1.81006,-0.12969 -4.07501,0.38465 -5.37171,-0.88488c-0.20943,-0.20504 1.16,-0.0623 0.87171,-0.11512c-5.13893,-0.94163 -11.27353,0 -16.5,0c-12.66667,0 -25.33333,0 -38,0c-7.85123,0 -16.17139,0.77481 -23.97087,-0.14564c-2.77291,-0.32725 -5.22966,-0.65378 -8.02913,-0.85436c-1.81006,-0.12969 -4.07501,0.38465 -5.37171,-0.88488c-0.20943,-0.20504 1.16,-0.0623 0.87171,-0.11512c-0.49181,-0.09012 -1,0 -1.5,0c-12,0 -24,0 -36,0c-3.09206,0 -8.8948,0.95229 -11.37171,-0.88488c-2.18282,-1.61903 -4.3217,-3.3217 -6.24342,-5.24342c-0.36702,-0.36702 -1.00544,-1.42303 -0.52311,-1.49727c-1.6965,-2.15083 -2.38907,-2.72265 -2.97689,-5.00273c-1.5382,-5.96644 -2.0848,-16.34264 1.37475,-21.53196c1.02671,-1.19338 1.96696,-2.46696 3.08013,-3.58013c0.42492,-0.42492 0.90134,-1.05215 1.5,-1c0.40714,0.03546 -0.86911,1.36911 -0.58013,1.08013c0.38972,-0.38972 0.87248,-0.7217 1.12525,-1.21146c1.19212,-2.30978 2.11458,-4.71021 3.40692,-6.98239c1.19221,-2.09613 2.06366,-4.32542 3.46783,-6.30615c0.63171,-0.89109 1.25151,-1.79269 1.93708,-2.64305c0.04818,-0.05976 0.10792,-0.13905 0.17407,-0.22789c0.23831,-1.22455 0.51403,-2.44133 0.88885,-3.62906c0.27728,-0.87863 2.24527,-3.98441 3,-4.5c0.23175,-0.15832 -0.14008,1.10176 -0.03569,0.84123c0.25559,-0.63788 0.33333,-1.33333 0.5,-2c0.82426,-1.82809 1.52601,-3.71652 2.47277,-5.48428c0.02649,-0.04947 0.06125,-0.108 0.10188,-0.17195c0.27779,-1.86416 0.6616,-3.78601 1.96105,-5.185c1.46927,-1.58183 2.67193,-7.35149 3.62525,-10.21146c0.33333,-1 0.26258,-2.24679 1,-3c0.20504,-0.20943 0.0623,1.16 0.11512,0.87171c0.09012,-0.49181 -0.02321,-1.00054 0,-1.5c0.11707,-2.51931 1,-4.68769 1,-7c0.17951,-1.8058 -0.38465,-4.07501 0.88488,-5.37171c0.20504,-0.20943 0.0623,1.16 0.11512,0.87171c0.95433,-5.20825 1.9519,-8.35772 3.72393,-12.81902c0.74026,-1.86369 1.48128,-3.74122 2.47277,-5.48428c0.34961,-0.61463 0.86041,-1.80153 1.5,-1.5c0.61502,0.28995 -1.06167,2.32416 -0.47277,1.98428c1.2374,-0.71413 0.53365,-4.90126 1.66094,-6.05269c0.20504,-0.20943 0.0623,1.16 0.11512,0.87171c0.32355,-1.76576 0.09309,-3.60042 0.38488,-5.37171c0.32112,-1.94938 1.43131,-4.11312 2.15155,-5.91372c1.49532,-3.33555 2.18585,-7.09847 3.34845,-10.58628c0.33333,-1 0.26258,-2.24679 1,-3c0.20504,-0.20943 0.0623,1.16 0.11512,0.87171c0.45428,-2.47922 -0.11898,-5.29954 0.22393,-7.81902c0.66684,-4.89952 1.25127,-10.0051 2.5,-15c1.43993,-0.94397 -0.37355,-5.48536 1.16094,-7.05269c0.20504,-0.20943 0.0623,1.16 0.11512,0.87171c1.62845,-8.88722 1,-18.31434 1,-27.5c0,-3.5 0,-7 0,-10.5c0,-0.88756 -0.4499,-3.76555 0,-4.5c0.16592,-0.27085 0.44212,1.18414 0.38488,0.87171c-0.41284,-2.25306 -1.83516,-4.49699 -1.38488,-6.87171c0.0242,-0.12765 0.24499,0.44722 0.22393,0.31902c-0.11136,-0.6781 -0.51478,-1.31297 -0.5,-2c0.00455,-0.21167 0.61444,0.53776 0.53569,0.34123c-0.44702,-1.11562 -1.33333,-2 -2,-3c0,0 -4.16025,-6.24038 2.08013,-10.40063c6.24038,-4.16025 10.40063,2.08013 10.40063,2.08013c0.88122,1.32183 1.70513,2.66217 2.38436,4.06651zM263.24762,273.1295c-0.09547,-0.31482 -0.16378,-0.67196 -0.13249,-0.50121c0.03122,0.1704 0.07793,0.33681 0.13249,0.50121z" fill="#b6af71" stroke="none" stroke-width="0.5"/>
        </g>
    </g>
</svg>
