<svg version="1.1" xmlns="http://www.w3.org/2000/svg" xmlns:xlink="http://www.w3.org/1999/xlink" width="22.67274" height="29.73347" viewBox="0,0,22.67274,29.73347">
    <g transform="translate(-229.33239,-162)">
        <g data-paper-data="{&quot;isPaintingLayer&quot;:true}" fill="none" fill-rule="nonzero" stroke="none" stroke-width="0.5" stroke-linecap="butt" stroke-linejoin="miter" stroke-miterlimit="10" stroke-dasharray="" stroke-dashoffset="0" font-family="none" font-weight="none" font-size="none" text-anchor="none" style="mix-blend-mode: normal">
            <path d="M246.125,169.5c6.27561,0.5151 5.875,8.48676 5.875,13.125c-0.16219,5.81386 -7.03685,9.8861 -12.4555,8.98299c-7.20566,-1.31984 -8.91534,-6.33839 -10.14523,-12.48785c-0.56765,-5.06477 2.55225,-7.2694 6.54283,-7.91028l-0.07599,-0.07599l1.76777,-1.76777l1.55821,1.55821c2.08456,-1.09386 4.06413,-1.42433 6.9329,-1.42433z" fill="#e58383"/><path d="M238.5,170.75c-0.74426,0 -1.04538,-0.44314 -1.16721,-0.80172c-0.05348,-0.13916 -0.08279,-0.2903 -0.08279,-0.44828v-1.25h0.08075c0.25133,-2.02357 1.11338,-4.4459 2.91925,-5.25c1.39117,-0.61945 2.84338,-0.48201 4.2564,-0.71801l-0.00154,-0.00772l1.22469,-0.24494c0.08709,-0.01921 0.17759,-0.02934 0.27046,-0.02934c0.69036,0 1.25,0.55964 1.25,1.25c0,0.41416 -0.20142,0.78127 -0.51164,1.00873l-0.48836,0.36627c-0.00029,0.17603 -1.33226,0.99919 -1.5,1.125c-1.38006,1.03504 -2.06299,2.69391 -3.28908,3.94789l0.03908,0.05211l-0.9899,0.74242c-0.21062,0.16156 -0.47415,0.25758 -0.7601,0.25758c-0.21667,0 -0.42046,-0.05513 -0.59812,-0.15212c-0.16659,0.0928 -0.37957,0.15212 -0.65188,0.15212z" fill="#9fe683"/>
        </g>
    </g>
</svg>
